<svg xmlns="http://www.w3.org/2000/svg" version="1.1" xmlns:xlink="http://www.w3.org/1999/xlink" xmlns:svgjs="http://svgjs.com/svgjs" width="1440" height="560" preserveAspectRatio="none" viewBox="0 0 1440 560"><g mask="url(&quot;#SvgjsMask1128&quot;)" fill="none"><path d="M1399.52 347.34 L1276.8999999999999 432.53L1259.2781253018668 311.0031253018667z" stroke="rgba(248, 4, 156, 1)" stroke-width="2.56" stroke-dasharray="2, 2"></path><rect width="80.2" height="80.2" clip-path="url(&quot;#SvgjsClipPath1129&quot;)" x="607.15" y="20.32" fill="url(#SvgjsPattern1130)" transform="rotate(40.45, 647.25, 60.42)"></rect><path d="M195.07 251.84 L158.68 237.43L162.5735384681552 258.9364615318448z" stroke="rgba(195, 141, 210, 1)" stroke-width="1" stroke-dasharray="3, 3"></path><rect width="156" height="156" clip-path="url(&quot;#SvgjsClipPath1131&quot;)" x="1078.74" y="-64.17" fill="url(#SvgjsPattern1132)" transform="rotate(163.82, 1156.74, 13.83)"></rect><path d="M6.37 302.96L12.49 314.21 2.86 322.64 8.98 333.89-0.66 342.33 5.46 353.58-4.17 362.02M-1.5 301.55L4.62 312.8-5.02 321.24 1.1 332.49-8.53 340.93-2.41 352.18-12.05 360.62" stroke="rgba(214, 193, 184, 1)" stroke-width="1"></path><rect width="104.72" height="104.72" clip-path="url(&quot;#SvgjsClipPath1133&quot;)" x="722.08" y="170.36" fill="url(#SvgjsPattern1134)" transform="rotate(19.53, 774.44, 222.72)"></rect><rect width="360" height="360" clip-path="url(&quot;#SvgjsClipPath1135&quot;)" x="1120.52" y="341.12" fill="url(#SvgjsPattern1136)" transform="rotate(259.78, 1300.52, 521.12)"></rect><rect width="324" height="324" clip-path="url(&quot;#SvgjsClipPath1137&quot;)" x="50.74" y="190.17" fill="url(#SvgjsPattern1138)" transform="rotate(230.05, 212.74, 352.17)"></rect><path d="M1480.8799999999999 262.83 L1446.81 135.21L1545.975731898311 116.88926810168857z" stroke="rgba(248, 4, 156, 1)" stroke-width="2.53" stroke-dasharray="2, 2"></path><rect width="60" height="60" clip-path="url(&quot;#SvgjsClipPath1139&quot;)" x="622.2" y="26.69" fill="url(#SvgjsPattern1140)" transform="rotate(117.12, 652.2, 56.69)"></rect><path d="M351.16999999999996 709.1500000000001 L370.97999999999996 591.9200000000001L311.7002608759345 601.1602608759347z" fill="rgba(195, 141, 210, 1)"></path><path d="M1066.35 252.89999999999998 L1088.8999999999999 242.26999999999998L1061.4593857233963 231.41938572339626z" stroke="rgba(214, 193, 184, 1)" stroke-width="1" stroke-dasharray="3, 2"></path></g><defs><mask id="SvgjsMask1128"><rect width="1440" height="560" fill="#ffffff"></rect></mask><pattern x="0" y="0" width="80.2" height="8.02" patternUnits="userSpaceOnUse" id="SvgjsPattern1130"><rect width="80.2" height="4.01" x="0" y="0" fill="rgba(195, 141, 210, 1)"></rect><rect width="80.2" height="4.01" x="0" y="4.01" fill="rgba(0, 0, 0, 0)"></rect></pattern><clipPath id="SvgjsClipPath1129"><circle r="20.05" cx="647.25" cy="60.42"></circle></clipPath><pattern x="0" y="0" width="156" height="6" patternUnits="userSpaceOnUse" id="SvgjsPattern1132"><rect width="156" height="3" x="0" y="0" fill="rgba(248, 4, 156, 1)"></rect><rect width="156" height="3" x="0" y="3" fill="rgba(0, 0, 0, 0)"></rect></pattern><clipPath id="SvgjsClipPath1131"><circle r="39" cx="1156.74" cy="13.83"></circle></clipPath><pattern x="0" y="0" width="7.48" height="7.48" patternUnits="userSpaceOnUse" id="SvgjsPattern1134"><path d="M3.74 1L3.74 6.48M1 3.74L6.48 3.74" stroke="rgba(248, 4, 156, 1)" fill="none" stroke-width="1"></path></pattern><clipPath id="SvgjsClipPath1133"><circle r="26.18" cx="774.44" cy="222.72"></circle></clipPath><pattern x="0" y="0" width="7.2" height="7.2" patternUnits="userSpaceOnUse" id="SvgjsPattern1136"><path d="M0 7.2L3.6 0L7.2 7.2" stroke="rgba(248, 4, 156, 1)" fill="none"></path></pattern><clipPath id="SvgjsClipPath1135"><circle r="90" cx="1300.52" cy="521.12"></circle></clipPath><pattern x="0" y="0" width="6" height="6" patternUnits="userSpaceOnUse" id="SvgjsPattern1138"><path d="M3 1L3 5M1 3L5 3" stroke="rgba(248, 4, 156, 1)" fill="none" stroke-width="1"></path></pattern><clipPath id="SvgjsClipPath1137"><circle r="81" cx="212.74" cy="352.17"></circle></clipPath><pattern x="0" y="0" width="60" height="6" patternUnits="userSpaceOnUse" id="SvgjsPattern1140"><rect width="60" height="3" x="0" y="0" fill="rgba(248, 4, 156, 1)"></rect><rect width="60" height="3" x="0" y="3" fill="rgba(0, 0, 0, 0)"></rect></pattern><clipPath id="SvgjsClipPath1139"><circle r="15" cx="652.2" cy="56.69"></circle></clipPath></defs></svg>